<svg width="38" height="38" viewBox="0 0 38 38" fill="none" xmlns="http://www.w3.org/2000/svg">
<path d="M22.1794 18.616C22.1794 20.584 20.5842 22.1793 18.6162 22.1793C16.6482 22.1793 15.0529 20.584 15.0529 18.616C15.0529 16.648 16.6482 15.0527 18.6162 15.0527C20.5842 15.0527 22.1794 16.648 22.1794 18.616Z" fill="white" fill-opacity="0.7"/>
<path d="M26.9495 12.3117C26.7782 11.8475 26.5049 11.4274 26.1499 11.0825C25.805 10.7274 25.3852 10.4542 24.9207 10.2829C24.5441 10.1366 23.9782 9.96247 22.936 9.91503C21.8086 9.86362 21.4705 9.85254 18.6163 9.85254C15.7617 9.85254 15.4237 9.86333 14.2966 9.91475C13.2543 9.96247 12.6882 10.1366 12.3118 10.2829C11.8474 10.4542 11.4273 10.7274 11.0827 11.0825C10.7276 11.4274 10.4543 11.8472 10.2828 12.3117C10.1365 12.6883 9.96235 13.2545 9.91491 14.2967C9.8635 15.4238 9.85242 15.7619 9.85242 18.6164C9.85242 21.4707 9.8635 21.8087 9.91491 22.9361C9.96235 23.9783 10.1365 24.5442 10.2828 24.9209C10.4543 25.3853 10.7273 25.8051 11.0824 26.15C11.4273 26.5051 11.8471 26.7783 12.3115 26.9496C12.6882 27.0962 13.2543 27.2703 14.2966 27.3178C15.4237 27.3692 15.7615 27.38 18.616 27.38C21.4708 27.38 21.8088 27.3692 22.9357 27.3178C23.9779 27.2703 24.5441 27.0962 24.9207 26.9496C25.853 26.59 26.5899 25.8532 26.9495 24.9209C27.0958 24.5442 27.2699 23.9783 27.3176 22.9361C27.3691 21.8087 27.3799 21.4707 27.3799 18.6164C27.3799 15.7619 27.3691 15.4238 27.3176 14.2967C27.2702 13.2545 27.0961 12.6883 26.9495 12.3117V12.3117ZM18.6163 24.1053C15.5845 24.1053 13.1268 21.6479 13.1268 18.6161C13.1268 15.5843 15.5845 13.1269 18.6163 13.1269C21.6478 13.1269 24.1055 15.5843 24.1055 18.6161C24.1055 21.6479 21.6478 24.1053 18.6163 24.1053ZM24.3225 14.1927C23.6141 14.1927 23.0397 13.6183 23.0397 12.9099C23.0397 12.2014 23.6141 11.6271 24.3225 11.6271C25.031 11.6271 25.6053 12.2014 25.6053 12.9099C25.605 13.6183 25.031 14.1927 24.3225 14.1927Z" fill="white" fill-opacity="0.7"/>
<path d="M18.6162 0C8.33635 0 0 8.33635 0 18.6162C0 28.8961 8.33635 37.2325 18.6162 37.2325C28.8961 37.2325 37.2325 28.8961 37.2325 18.6162C37.2325 8.33635 28.8961 0 18.6162 0ZM29.2416 23.0235C29.1899 24.1614 29.0089 24.9383 28.7447 25.6184C28.1894 27.0543 27.0543 28.1894 25.6184 28.7447C24.9386 29.0089 24.1614 29.1896 23.0237 29.2416C21.8838 29.2935 21.5196 29.306 18.6165 29.306C15.7131 29.306 15.3493 29.2935 14.209 29.2416C13.0714 29.1896 12.2942 29.0089 11.6144 28.7447C10.9009 28.4763 10.2549 28.0556 9.72087 27.5116C9.17717 26.9779 8.75648 26.3316 8.48804 25.6184C8.22386 24.9386 8.04291 24.1614 7.99122 23.0237C7.93866 21.8835 7.92645 21.5194 7.92645 18.6162C7.92645 15.7131 7.93866 15.349 7.99093 14.209C8.04263 13.0711 8.22329 12.2942 8.48747 11.6141C8.75591 10.9009 9.17689 10.2546 9.72087 9.72087C10.2546 9.17689 10.9009 8.75619 11.6141 8.48776C12.2942 8.22358 13.0711 8.04291 14.209 7.99093C15.349 7.93895 15.7131 7.92645 18.6162 7.92645C21.5194 7.92645 21.8835 7.93895 23.0235 7.99122C24.1614 8.04291 24.9383 8.22358 25.6184 8.48747C26.3316 8.75591 26.9779 9.17689 27.5119 9.72087C28.0556 10.2549 28.4766 10.9009 28.7447 11.6141C29.0092 12.2942 29.1899 13.0711 29.2419 14.209C29.2938 15.349 29.306 15.7131 29.306 18.6162C29.306 21.5194 29.2938 21.8835 29.2416 23.0235V23.0235Z" fill="white" fill-opacity="0.7"/>
</svg>
