<svg width="38" height="38" viewBox="0 0 38 38" fill="none" xmlns="http://www.w3.org/2000/svg">
<path d="M18.7602 0C8.39957 0 0 8.39919 0 18.7602C0 29.1212 8.39957 37.5204 18.7602 37.5204C29.1208 37.5204 37.5204 29.1212 37.5204 18.7602C37.5204 8.39919 29.1208 0 18.7602 0ZM28.2764 20.7892C29.1507 21.6432 30.0758 22.447 30.8607 23.3893C31.2085 23.8062 31.5363 24.2372 31.7858 24.722C32.142 25.4133 31.8203 26.1714 31.2016 26.2124L27.3582 26.2117C26.3656 26.2938 25.5757 25.8935 24.9097 25.2148C24.3781 24.674 23.8848 24.0963 23.3728 23.5371C23.1636 23.3075 22.9433 23.0914 22.6807 22.9214C22.1568 22.5805 21.7016 22.685 21.4014 23.2323C21.0955 23.7893 21.0256 24.4065 20.9964 25.0264C20.9546 25.9326 20.6813 26.1695 19.772 26.2121C17.829 26.303 15.9854 26.0082 14.2719 25.0287C12.7604 24.1647 11.5904 22.9452 10.571 21.5645C8.58574 18.873 7.06535 15.919 5.69926 12.8801C5.3918 12.1958 5.61673 11.8296 6.37175 11.8154C7.62614 11.7912 8.88053 11.7943 10.1349 11.8142C10.6454 11.8223 10.9832 12.1144 11.1793 12.5961C11.8572 14.2639 12.6882 15.8507 13.7296 17.3223C14.0071 17.7142 14.2904 18.105 14.6938 18.3817C15.139 18.6873 15.4784 18.5863 15.6883 18.0892C15.8227 17.7733 15.8806 17.4356 15.9098 17.097C16.0096 15.9374 16.0215 14.7782 15.8488 13.6233C15.7413 12.9005 15.3348 12.4337 14.6143 12.2971C14.2474 12.2276 14.3011 12.0917 14.4796 11.8822C14.7894 11.5198 15.0795 11.2956 15.6595 11.2956L20.0019 11.2949C20.6863 11.4292 20.8398 11.7363 20.9327 12.4257L20.9366 17.2513C20.9285 17.5181 21.0705 18.3088 21.5496 18.4834C21.9334 18.6101 22.1867 18.3023 22.4163 18.0593C23.4576 16.9542 24.1996 15.6499 24.864 14.3C25.1573 13.7046 25.4102 13.0886 25.6559 12.4714C25.8386 12.015 26.1226 11.7904 26.6377 11.7981L30.8193 11.8031C30.9425 11.8031 31.0676 11.8042 31.1897 11.8253C31.8944 11.9459 32.0875 12.2491 31.8695 12.9366C31.5263 14.0167 30.8596 14.9164 30.2078 15.8184C29.5092 16.7842 28.7642 17.7161 28.0725 18.6861C27.4369 19.5728 27.4872 20.0192 28.2764 20.7892Z" fill="white" fill-opacity="0.7"/>
</svg>
